<svg t="1769261671758" class="icon" viewBox="0 0 1024 1024" version="1.1" xmlns="http://www.w3.org/2000/svg" p-id="7231" width="25" height="25"><path d="M311.4 811.6c-64.7 41-117.3 14.4-117.29999999-59.6l-1e-8-478.8c0-73.9 52.5-100.6 117.3-59.6L666.3 438.2c64.8 41 64.80000001 107.6 0 148.7l-354.9 224.7z" p-id="7232" fill="#515151"></path><path d="M760.6 192.3l9.79999999 0c31.2 0 56.7 25.5 56.70000001 56.7L827.1 774.2c0 31.2-25.5 56.7-56.7 56.7l-9.8 0c-31.2 0-56.7-25.5-56.7-56.7L703.9 249c0-31.2 25.5-56.7 56.7-56.7z" p-id="7233" fill="#515151"></path></svg>