<svg t="1769280308555" class="icon" viewBox="0 0 1024 1024" version="1.1" xmlns="http://www.w3.org/2000/svg" p-id="5608" width="30" height="30"><path d="M102.425742 102.393565v819.148516l614.361387-409.574258z" fill="#515151" p-id="5609"></path><path d="M153.622524 102.393565v819.148516l614.361387-409.574258z" fill="#515151" p-id="5610"></path><path d="M259.599863 15.871003V834.507551l619.481066-405.478515z" fill="#515151" p-id="5611"></path><path d="M261.135767 189.428094l-1.535904 818.636549L875.497154 599.002353z" fill="#515151" p-id="5612"></path><path d="M204.819306 102.393565m-102.393564 0a102.393565 102.393565 0 1 0 204.787129 0 102.393565 102.393565 0 1 0-204.787129 0Z" fill="#515151" p-id="5613"></path><path d="M819.180694 409.574258c-56.316461 0-102.393565 46.077104-102.393565 102.393565s46.077104 100.345693 102.393565 102.393564c57.852364 2.047871 102.905532-45.053168 102.393564-102.393564-0.511968-56.316461-46.077104-102.393565-102.393564-102.393565zM204.819306 819.148517c-56.316461 0-102.393565 46.077104-102.393564 102.393564s46.077104 100.345693 102.393564 102.393565c53.756621 2.047871 100.857661-45.053168 102.393565-102.393565 1.535903-56.316461-46.077104-102.393565-102.393565-102.393564z" fill="#515151" p-id="5614"></path></svg>