<svg t="1769262394621" class="icon" viewBox="0 0 1024 1024" version="1.1" xmlns="http://www.w3.org/2000/svg" p-id="18186" width="20" height="20"><path d="M693.333333 900.266667H347.733333C155.733333 900.266667 0 744.533333 0 552.533333v-2.133333c0-192 155.733333-347.733333 347.733333-347.733333h343.466667c17.066667 0 32 14.933333 32 32s-14.933333 32-32 32H347.733333C192 266.666667 64 394.666667 64 550.4v2.133333c0 155.733333 128 283.733333 283.733333 283.733334h343.466667c119.466667 0 228.266667-76.8 266.666667-189.866667 6.4-17.066667 25.6-25.6 42.666666-19.2 17.066667 6.4 25.6 25.6 19.2 42.666667-46.933333 136.533333-179.2 230.4-326.4 230.4z" fill="#BDBDBD" p-id="18187"></path><path d="M838.4 211.2l-149.333333-85.333333c-17.066667-8.533333-36.266667 2.133333-36.266667 21.333333v170.666667c0 19.2 21.333333 29.866667 36.266667 21.333333l149.333333-85.333333c17.066667-8.533333 17.066667-32 0-42.666667z" fill="#BDBDBD" p-id="18188"></path></svg>